# xmcd
#
# Track frame offsets:
# 150
# 19366
# 35726
# 56577
# 70299
# 89390
# 109130
# 125207
# 151021
# 164997
# 184967
# 206810
#
# Disc length: 3042 seconds
#
#
# Revision: 0
# Processed by: cddbd v1.5.2PL0 Copyright (c) Steve Scherf et al.
# Submitted via: FreeRIP 2.944 
#
DISCID=b80be00c
DTITLE=ema lou harris - all the road running
DYEAR=2006
DGENRE=Country
TTITLE0=all the road running
TTITLE1=all the road running
TTITLE2=all the road running
TTITLE3=all the road running
TTITLE4=all the road running
TTITLE5=all the road running
TTITLE6=all the road running
TTITLE7=all the road running
TTITLE8=all the road running
TTITLE9=all the road running
TTITLE10=all the road running
TTITLE11=all the road running
EXTD=
EXTT0=
EXTT1=
EXTT2=
EXTT3=
EXTT4=
EXTT5=
EXTT6=
EXTT7=
EXTT8=
EXTT9=
EXTT10=
EXTT11=
PLAYORDER=
